<?xml version="1.0" encoding="utf-8"?>
<!-- Generator: Adobe Illustrator 19.2.1, SVG Export Plug-In . SVG Version: 6.00 Build 0)  -->
<svg version="1.1" id="layer" xmlns="http://www.w3.org/2000/svg" xmlns:xlink="http://www.w3.org/1999/xlink" x="0px" y="0px"
	 viewBox="0 0 652 652" style="enable-background:new 0 0 652 652;" xml:space="preserve">
<path d="M453.9,359.8h34.3v32.6h-90.5V248.8h90.5v32.6h-34.3v15.7h34.3v33h-34.3L453.9,359.8z"/>
<path d="M329.6,281.4h-34.9v-32.6h97.7c0,0.6,0.1,1.2,0.1,1.7c0,9,0,17.9,0,26.9c0,0.9-0.2,1.8-0.6,2.7
	c-12.3,25.9-24.7,51.8-37,77.7c-0.3,0.6-0.5,1.2-0.9,2.1h38.4v32.7H291.3c0-0.6-0.1-1.2-0.1-1.8c0-9.1,0-18.3,0-27.4
	c0-1,0.2-2,0.7-2.8c12.1-25.4,24.3-50.9,36.5-76.3C328.8,283.3,329.1,282.5,329.6,281.4z"/>
<path d="M621.4,279.3c0-2.5-0.1-5-0.4-7.5c-1.3-11.3-7.5-18.7-18.6-21.3c-4.9-1.2-9.8-1.8-14.8-1.8c-30.6-0.2-61.1-0.1-91.7-0.1
	c-0.7,0-1.3,0.1-2.1,0.1v143.9h1.9c31.2,0,62.4,0,93.6-0.1c3.8-0.1,7.5-0.4,11.2-1.2c10.6-1.9,17.4-8.1,19.6-18.8
	c0.8-4,1.3-8.2,1.3-12.3C621.5,333.3,621.5,306.3,621.4,279.3z M564.3,350.4c0,0.5,0,1,0,1.5c-0.3,5.6-2.6,7.7-8.2,7.7h-6v-78.2
	c3.5,0.1,6.9-0.5,10.3,0.8c2,0.8,3,2.4,3.4,4.4c0.3,1.4,0.5,2.8,0.5,4.3C564.4,310.7,564.4,330.5,564.3,350.4L564.3,350.4z"/>
<path d="M149,279.6c0-2.9-0.2-5.9-0.7-8.8c-1.6-10.7-7.5-17.8-18.1-20.2c-5-1.2-10.1-1.8-15.2-1.9c-30.5-0.2-61-0.1-91.5-0.1h-2v144
	h2.6c30.2,0,60.5,0,90.7,0c3.8,0,7.5-0.3,11.2-0.8c12.4-1.7,19.3-8.1,21.8-20.2c0.8-3.9,1.2-7.9,1.2-11.9
	C149.1,333,149.1,306.3,149,279.6z M91.9,349.5c0,1.7-0.2,3.5-0.6,5.2c-0.6,2.9-2.3,4.5-5.3,4.7c-2.7,0.2-5.5,0-8.4,0v-78.3
	c3.3,0.2,6.5,0.2,9.5,0.8c3,0.5,4,3.1,4.5,5.8c0.2,1.3,0.3,2.6,0.3,3.9C91.9,311,91.9,330.2,91.9,349.5z"/>
<path d="M262.4,248.7h-88.1l-25.3,143.7h58l3.2-31c5.2,0,10.2,0,15.2,0.1c0.4,0,1,0.8,1,1.4c0.6,5.2,1.1,10.5,1.6,15.7
	c0.5,4.6,1,9.3,1.5,13.9h58.2L262.4,248.7z M212.4,329.6l5.8-47.2h0.4l5.6,47.2L212.4,329.6z"/>
</svg>
