<svg xmlns="http://www.w3.org/2000/svg" width="114" height="20" fill="none" viewBox="0 0 114 20">
  <path fill="#000" fill-rule="evenodd" d="M13.427 11.127c1.171-.36 1.982-1.079 2.703-1.888.631-.9.992-1.978.992-3.237 0-.81-.18-1.619-.451-2.248-.27-.72-.72-1.259-1.352-1.798-.54-.45-1.261-.9-2.072-1.17-.811-.269-1.622-.449-2.614-.449H.451C.18.427 0 .607 0 .877v18.342c0 .27.18.45.45.45h2.253c.27 0 .451-.18.451-.45v-7.643h6.758l3.965 7.823c.09.18.27.36.451.36h2.523c.36 0 .54-.36.45-.72l-3.874-7.912Zm-2.613-2.428h-7.57V3.304h7.57c.9 0 1.622.27 2.162.72.541.54.811 1.169.811 1.978 0 .809-.27 1.438-.81 1.978-.541.45-1.262.72-2.163.72Zm33.792 8.182H31.9v-5.934h9.192c.27 0 .45-.18.45-.45V8.61c0-.27-.18-.45-.45-.45H31.9V3.215h12.346c.27 0 .54-.18.54-.45V.878c0-.27-.18-.54-.54-.54h-15.14c-.27 0-.45.18-.45.54V19.22c0 .27.18.45.45.45h15.5c.27 0 .54-.18.54-.45v-1.888c0-.27-.18-.45-.54-.45ZM58.844.427h-2.253c-.27 0-.45.18-.45.54v18.342c0 .27.18.45.45.45h2.253c.27 0 .45-.18.45-.45V.877c0-.18-.18-.45-.45-.45Zm24.15 8.812c-3.063-.99-6.217-1.439-7.389-2.158-.9-.54-1.171-.99-1.171-1.799 0-.899.991-1.528 2.072-1.978 1.532-.54 3.515-.45 4.596-.27 1.082.18 2.614.81 3.605 1.44.63.359.81 0 .9-.09.091-.09.812-1.26.992-1.62.18-.269 0-.539-.36-.808-.45-.27-1.622-1.08-3.875-1.619-2.163-.45-4.236-.45-6.218 0-1.983.72-3.244 1.619-3.965 2.608-.72 1.079-.901 1.888-.811 2.967.09 1.169.54 2.158 1.892 3.147 1.442.989 2.794 1.439 4.416 1.888 1.622.45 4.145 1.08 4.956 1.439.901.36 1.712.899 1.712 2.068 0 1.079-1.442 2.697-5.316 2.697-3.965 0-6.308-2.338-6.308-2.338s-.27-.27-.721.09c0 0-.901 1.08-1.172 1.439-.27.27-.09.54.09.72.18.18 1.442 1.708 4.506 2.427 3.064.81 6.308.72 9.011-.72 2.253-1.168 2.974-2.876 2.974-4.585 0-2.428-1.442-3.956-4.415-4.945Zm26.134 0c-3.064-.99-6.218-1.439-7.39-2.158-.901-.54-1.171-.99-1.171-1.799 0-.899.991-1.528 2.072-1.978 1.532-.54 3.515-.45 4.596-.27 1.082.18 2.613.81 3.605 1.44.631.359.811 0 .901-.09.09-.09.811-1.26.991-1.62.18-.269 0-.539-.36-.808-.451-.27-1.622-1.08-3.875-1.619-2.163-.45-4.236-.45-6.218 0-1.983.45-3.334 1.439-3.965 2.428-.721 1.079-.901 1.888-.811 2.967.09 1.169.54 2.158 1.892 3.147 1.442.99 2.794 1.439 4.416 1.888 1.622.45 4.145 1.08 4.956 1.439.901.36 1.712.9 1.712 2.068 0 1.079-1.442 2.697-5.316 2.697-3.965 0-6.308-2.337-6.308-2.337s-.27-.27-.721.09c0 0-.901 1.079-1.172 1.438-.27.27-.09.54.09.72.18.18 1.442 1.708 4.506 2.427 3.064.72 6.308.72 9.011-.72 2.253-1.168 2.974-2.876 2.974-4.585 0-2.248-1.442-3.776-4.415-4.765Z" clip-rule="evenodd"/>
</svg>
