<?xml version="1.0" encoding="utf-8"?>
<!-- Generator: Adobe Illustrator 19.2.1, SVG Export Plug-In . SVG Version: 6.00 Build 0)  -->
<svg version="1.1" id="layer" xmlns="http://www.w3.org/2000/svg" xmlns:xlink="http://www.w3.org/1999/xlink" x="0px" y="0px"
	 viewBox="0 0 652 652" style="enable-background:new 0 0 652 652;" xml:space="preserve">
<style type="text/css">
	.st0{fill:#222222;}
</style>
<polygon class="st0" points="50.3,311.6 50.3,348.4 40.3,348.4 40.3,311.6 26,311.6 26,302.6 64.7,302.6 64.7,311.6 "/>
<path class="st0" d="M135,311c-7,0-11.6,5.2-11.6,14.4s4.9,14.6,11.8,14.6c7,0,11.6-5.2,11.6-14.4S142,311,135,311 M135,349.1
	c-13.1,0-22-8.8-22-23.6s9.1-23.7,22.2-23.7s21.9,8.8,21.9,23.6C157.2,340.2,148.2,349.1,135,349.1"/>
<path class="st0" d="M232.7,311.5h-11.5v11.8h11.6c4.6,0,7-1.9,7-5.9s-2.8-5.8-7.3-5.8 M232.1,332.2H221v16.2h-10v-45.8h21.8
	c9.4,0,17.2,4.8,17.2,14.5c0,10.6-7.7,15.1-18.1,15.1"/>
<path class="st0" d="M320.1,349.1c-7.4,0.4-14.6-2.7-19.4-8.3l7.2-5.9c3.3,3.5,8,5.4,12.8,5.2c5.9,0,8.7-1.5,8.7-5
	c0-2.9-1.7-4.3-11.1-6.2s-15.6-4.6-15.6-13.7c0-8.3,8-13.4,17.8-13.4c6.8-0.2,13.4,2.4,18.2,7.2l-7,6.5c-3-3-7.1-4.7-11.3-4.7
	c-5.4,0-7.1,2.1-7.1,4.1c0,2.8,2.1,3.8,10.1,5.6s16.7,4.2,16.7,14.1c0,8.7-6,14.6-19.6,14.6"/>
<polygon class="st0" points="424.8,348.4 424.8,329.2 404.3,329.2 404.3,348.4 394.3,348.4 394.3,302.6 404.3,302.6 404.3,320.1 
	424.8,320.1 424.8,302.6 434.7,302.6 434.7,348.4 "/>
<path class="st0" d="M510.8,311c-7,0-11.6,5.2-11.6,14.4S504,340,510.9,340c7,0,11.6-5.2,11.6-14.4S517.7,311,510.8,311
	 M510.8,349.1c-13.1,0-22-8.8-22-23.6s9.1-23.7,22.2-23.7c13.2,0,21.9,8.8,21.9,23.6C532.9,340.2,523.8,349.1,510.8,349.1"/>
<path class="st0" d="M608.4,311.5h-11.5v11.8h11.6c4.6,0,7.1-2,7.1-5.9C615.7,313.4,612.9,311.5,608.4,311.5 M607.9,332.2h-11.1
	v16.2h-10v-45.8h21.8c9.6,0,17.3,4.8,17.3,14.5C626,327.7,618.3,332.2,607.9,332.2"/>
</svg>
